<?xml version="1.0" encoding="UTF-8" standalone="no"?>
<svg
   xmlns:dc="http://purl.org/dc/elements/1.1/"
   xmlns:cc="http://creativecommons.org/ns#"
   xmlns:rdf="http://www.w3.org/1999/02/22-rdf-syntax-ns#"
   xmlns:svg="http://www.w3.org/2000/svg"
   xmlns="http://www.w3.org/2000/svg"
   version="1.1"
   id="svg2"
   xml:space="preserve"
   width="3966.6667"
   height="2266.6667"
   viewBox="0 0 3966.6667 2266.6667"><metadata
     id="metadata8"><rdf:RDF><cc:Work
         rdf:about=""><dc:format>image/svg+xml</dc:format><dc:type
           rdf:resource="http://purl.org/dc/dcmitype/StillImage" /><dc:title></dc:title></cc:Work></rdf:RDF></metadata><defs
     id="defs6" /><g
     id="g10"
     transform="matrix(1.3333333,0,0,-1.3333333,0,2266.6667)"><g
       id="g12"
       transform="scale(0.1)"><g
         id="g18"
         transform="scale(1.72081)"><path
           d="m 3149.16,1143.3 c 0,0 -2890.663,2893.17 -1095.53,4623.01 C 3848.76,7496.16 5267.59,5250.48 6248.8,5415.93 7490.83,5625.36 8027.97,8776.36 9884.65,8779.34 11997.2,8782.75 13547.8,7533.9 12721.9,4559.73 12112.7,2366.1 16300,4162.46 15685,1100.64 L 3149.16,1143.3"
           style="fill:#ebf2f9;fill-opacity:1;fill-rule:nonzero;stroke:none"
           id="path20" /></g><g
         id="g22"
         transform="scale(1.05287)"><path
           d="m 15451.5,2483.03 c -642.2,103.44 -1127.1,-121.57 -1593.3,-56.89 -371.9,51.57 -565.6,427.69 -1065.3,534.26 118.8,70.09 257.3,157.76 323.5,221.49 128.6,123.85 313.2,371.56 0,381.34 -225.4,7.03 -401,-368.42 -481.7,-579.66 -74,6.18 -154.1,6.65 -241.4,0.19 103.2,332.43 304.3,975.82 353.5,1099.38 66.9,168.21 -214.2,728.97 -545.6,99.64 -232.5,-441.37 -74.7,-951.5 40.3,-1216.78 -90.8,-14.62 -176.4,-35.71 -258.3,-61.36 -273.8,624.87 -1145.1,2406.2 -2089.44,2184.81 C 8864.14,4848.2 11070,3650.61 11626.3,2762.75 11171.8,2552.08 10772.5,2296.21 10082.2,2483.03 8247.81,2979.68 8102.3,1862.25 8102.3,1862.25 l 8197.7,-2.75 c 0,0 -206.2,520.2 -848.5,623.53"
           style="fill:#acd29a;fill-opacity:1;fill-rule:nonzero;stroke:none"
           id="path24" /></g><path
         d="m 13920.5,6847.7 c 8.8,-83 126.4,-80 259.2,-60.1 132.8,19.9 98.5,-15 285.3,-11.4 186.7,3.6 249.1,67.4 257.2,94.4 7.3,23.9 -83.3,40.9 -180.3,61.1 -12.2,2.5 -24.4,5.2 -36.7,7.8 -109.3,24 -183.9,102.77 -279,170.57 -90.2,64.22 -150.9,358.54 -150.9,358.54 l -265.5,1.57 c 0,0 83.4,-266.17 126.9,-358.73 25.5,-54.45 -1.7,-124.35 -10.3,-176.75 -4.6,-28.5 -9.1,-57.7 -5.9,-87"
         style="fill:#ffb07b;fill-opacity:1;fill-rule:nonzero;stroke:none"
         id="path26" /><path
         d="m 14179.7,6787.6 c 132.8,19.9 98.5,-15 285.3,-11.4 186.7,3.6 249.1,67.4 257.2,94.4 7.3,23.9 -83.3,40.9 -180.3,61.1 l -1.1,-1.8 c 0,0 -118,-68.5 -272.3,-58.2 -125.7,8.4 -255.3,56.5 -342.1,63 -4.6,-28.5 -9.1,-57.7 -5.9,-87 8.8,-83 126.4,-80 259.2,-60.1"
         style="fill:#365da4;fill-opacity:1;fill-rule:nonzero;stroke:none"
         id="path28" /><path
         d="m 11844.6,6860.9 c 5.8,-83.3 123.3,-84.8 256.8,-69.9 133.5,14.9 97.9,-18.7 284.7,-22.1 186.7,-3.5 251.4,58 260.6,84.6 8.1,23.7 -81.7,44 -177.9,67.9 -12.1,2.9 -24.2,6.1 -36.3,9.2 -108.4,28.1 -180,109.6 -272.5,180.92 -87.6,67.58 -15.5,347.88 -15.5,347.88 l -201.5,95.15 c 0,0 -27.7,-288.89 -42.7,-435 -6.1,-59.83 -35.9,-119.95 -46.4,-172.05 -5.7,-28.3 -11.3,-57.2 -9.3,-86.6"
         style="fill:#ffb07b;fill-opacity:1;fill-rule:nonzero;stroke:none"
         id="path30" /><path
         d="m 12101.4,6791 c 133.5,14.9 97.9,-18.7 284.7,-22.1 186.7,-3.5 251.4,58 260.6,84.6 8.1,23.7 -81.7,44 -177.9,67.9 l -1.1,-1.8 c 0,0 -120.6,-64 -274.4,-47.8 -125.3,13.1 -253,66 -339.4,75.7 -5.7,-28.3 -11.3,-57.2 -9.3,-86.6 5.8,-83.3 123.3,-84.8 256.8,-69.9"
         style="fill:#365da4;fill-opacity:1;fill-rule:nonzero;stroke:none"
         id="path32" /><path
         d="m 12297.2,11020.9 c 0,0 -55.8,-270.2 -111.7,-1640.61 0,0 -103.7,-253.74 -178.9,-563.99 -75.2,-310.25 -128.2,-1604.82 -128.2,-1604.82 0,0 30,-43.22 121,-48.68 74.3,-4.46 132.2,28.13 132.2,28.13 0,0 522.7,1695.57 777.1,2353.84 254.5,658.33 403.6,1598.23 403.6,1598.23 l -1015.1,-122.1"
         style="fill:#2b478b;fill-opacity:1;fill-rule:nonzero;stroke:none"
         id="path34" /><path
         d="m 12925.9,10905.2 c 0,0 41.2,-272.8 463.2,-1577.81 0,0 -9.4,-273.92 27.5,-591.02 36.9,-317.1 464.1,-1565.57 464.1,-1565.57 0,0 56.7,-19.71 141.8,2.75 79.1,20.88 141.2,68.48 141.2,68.48 0,0 -163.8,1784.44 -153,2490.1 10.8,705.67 -174.8,1639.07 -174.8,1639.07 l -910,-466"
         style="fill:#2b478b;fill-opacity:1;fill-rule:nonzero;stroke:none"
         id="path36" /><path
         d="m 13673.3,14684.6 c -66.2,42.1 -147.5,50.4 -204.8,49.9 15.5,14.4 44.7,18.5 44.7,18.5 -35.2,7.1 -115.9,-24.1 -115.9,-24.1 -482.7,214.3 -596.4,-506.6 -594.4,-675.5 1.8,-168.9 -6.6,-362.8 -259.9,-501.5 -498.3,-273 -116.3,-812.1 -116.3,-812.1 -89.7,-257.4 242.4,-572.7 242.4,-572.7 -5.7,136.7 621.8,1007.5 960.1,1206.2 85.6,113.4 124.3,319.3 127.2,335.6 -22,-163.8 -54.7,-254.6 -82.4,-305.3 290.1,241.4 174.6,1169.5 -0.7,1281"
         style="fill:#c65447;fill-opacity:1;fill-rule:nonzero;stroke:none"
         id="path38" /><path
         d="m 13568.1,13466.6 c 1.7,-0.8 -158.2,-83.9 -278.6,-51 -113.2,30.9 -187.2,177.7 -185.6,178 47.9,9.5 61.8,75.4 60.7,358.5 l 21.7,-4.3 351.3,-69.6 13.1,-2.5 c 0,0 -8.3,-114.7 -8.6,-222.8 -0.1,-22.8 0.3,-45.3 1.1,-66.4 2.4,-62.7 9.4,-112.6 24.9,-119.9"
         style="fill:#ffb07b;fill-opacity:1;fill-rule:nonzero;stroke:none"
         id="path40" /><path
         d="m 13542.1,13652.9 c -0.1,-22.8 0.3,-45.3 1.1,-66.4 -204.3,8.2 -322.1,241.9 -366.6,344.4 l 361,-52.7 13.1,-2.5 c 0,0 -8.3,-114.7 -8.6,-222.8"
         style="fill:#ea8e50;fill-opacity:1;fill-rule:nonzero;stroke:none"
         id="path42" /><path
         d="m 13148.7,13987.5 c 0,0 -106.9,168.8 -132.5,313.2 -18.4,103.1 34.1,485.1 418.1,430.1 0,0 111.5,-11 216.3,-81.8 83.4,-56.3 203.7,-177.8 69.1,-511.2 l -34.9,-112.6 -536.1,-37.7"
         style="fill:#c65447;fill-opacity:1;fill-rule:nonzero;stroke:none"
         id="path44" /><path
         d="m 13572.2,13705.9 c 0,0 -478.4,63.2 -434.4,360.5 44,297.3 11.8,505.7 319.1,477.9 307.3,-27.8 349.7,-150 359.2,-252.8 9.4,-102.8 -118.4,-594.4 -243.9,-585.6"
         style="fill:#ffb07b;fill-opacity:1;fill-rule:nonzero;stroke:none"
         id="path46" /><path
         d="m 13675.3,14519.2 c 0,0 -182.6,-329.3 -390.8,-350.9 -208.2,-21.7 -287.1,45 -287.1,45 0,0 172,99.2 235.7,307.7 0,0 368.4,178.8 442.2,-1.8"
         style="fill:#c65447;fill-opacity:1;fill-rule:nonzero;stroke:none"
         id="path48" /><path
         d="m 13638.7,14495.7 c 0,0 86,-92.4 98.5,-171.6 12.5,-79.3 0,-236.7 46.2,-238.2 0,0 133.7,222.4 43.1,373 -96.1,159.6 -187.8,36.8 -187.8,36.8"
         style="fill:#c65447;fill-opacity:1;fill-rule:nonzero;stroke:none"
         id="path50" /><g
         id="g52"
         transform="scale(1.04385)"><path
           d="m 16109.1,10017.4 c -96.2,203.7 -363.5,372.2 -588.6,372.2 -166.3,0.1 -313,-56.7 -426.5,-149.1 -65,-52.9 -162.8,-18 -180.4,63.8 l -197.2,915.8 c -28.7,133.5 -160.2,218.4 -293.8,189.7 l -3189.2,-686.4 c -130.5,-28.1 -213.5,-156.6 -185.4,-287.1 l 685.6,-3185.77 c 19.7,-91.13 86.5,-159.87 169.3,-186.28 l -41.9,-11.87 h 123.9 l 1,0.18 c 15.1,0.44 30.4,2.18 45.8,5.49 l 69.4,14.94 v 0 0 l 818.6,176.17 c 114.9,24.72 161.4,163.68 84.3,252.28 -74.6,85.57 -128.3,191.57 -151.1,311.64 -64.4,338.36 144.8,673.52 477.2,763.59 369.8,100.19 743.2,-130.65 822.8,-500.38 29.9,-139.09 13.9,-277.37 -37.9,-399.01 -20.1,-47.26 -3.5,-96.34 31,-124.31 l -47.7,-23.3 110.7,0.07 v 0.01 c 8.2,-0.2 16.7,0.5 25.5,2.38 l 977.3,210.35 c 133.7,28.76 218.6,160.36 189.9,293.94 l -195.9,910.09 c -18.1,84.22 58.7,158.04 142.1,136.6 96.5,-24.79 200.1,-28.14 304,-5.76 409,88.02 648.1,535.62 457.2,940.05"
           style="fill:#d86713;fill-opacity:1;fill-rule:nonzero;stroke:none"
           id="path54" /></g><g
         id="g56"
         transform="scale(1.03663)"><path
           d="m 15515.1,10461.9 c -167.5,0.1 -315.2,-57 -429.5,-150.1 -65.3,-53.3 -163.9,-18.2 -181.7,64.2 l -198.4,922.1 c -28.9,134.5 -161.4,220 -295.9,191.1 L 11198.2,10798 c -131.4,-28.3 -215,-157.7 -186.7,-289 l 690.4,-3208.01 c 29.4,-136.4 163.7,-223.17 300.1,-193.82 l 894.2,192.44 c 115.7,24.89 162.6,164.82 84.9,254.04 -75.1,86.17 -129.1,192.9 -152.1,313.81 -64.9,340.7 145.7,678.21 480.5,768.9 372.4,100.89 748.4,-131.56 828.5,-503.86 30.2,-140.07 14,-279.3 -38.2,-401.79 -33.9,-79.59 35.8,-164.35 120.4,-146.16 l 984.1,211.81 c 134.5,28.96 220.1,161.48 191.1,295.99 l -197.1,916.43 c -18.4,84.8 59,159.13 143,137.54 97.2,-24.96 201.4,-28.33 306.2,-5.8 411.8,88.64 652.5,539.35 460.2,946.58 -96.8,205.1 -365.9,374.8 -592.6,374.8"
           style="fill:#f1a34f;fill-opacity:1;fill-rule:nonzero;stroke:none"
           id="path58" /></g><path
         d="m 14865.3,12109.4 c 0,0 207.7,-34 262.1,-169 54.4,-135.1 -21.6,-226.5 -50.8,-226.2 -29.2,0.3 -85.3,21.9 -111.5,92 -26.3,70 -99.8,303.2 -99.8,303.2"
         style="fill:#ffb07b;fill-opacity:1;fill-rule:nonzero;stroke:none"
         id="path60" /><path
         d="m 12006.6,11506.9 c 0,0 233.1,0.3 317,-137.5 83.8,-137.8 17.3,-251.5 -14.7,-256.4 -32,-4.9 -97.2,8.6 -138.5,80.4 -41.3,71.8 -163.8,313.5 -163.8,313.5"
         style="fill:#ffb07b;fill-opacity:1;fill-rule:nonzero;stroke:none"
         id="path62" /><path
         d="m 14871.1,11952.7 c -20.6,4.4 -111,15 -225.9,33.1 -211.7,33.2 -506.7,91.7 -605.7,183 -26.8,24.8 -89.3,161.2 -154.2,317.6 -65.6,-346.2 -69.3,-611.8 -51.9,-814 L 12403,11364.6 c 122.6,247.9 312.5,555.4 276.9,804.2 -13.2,92.2 -63.8,218.8 -82.7,361 -1.5,12.2 -2.9,24.5 -4,36.9 -200.6,-165.2 -432.3,-347.4 -437.9,-383.8 -9.2,-61.1 147,-737.3 147,-737.3 -38.8,-89.3 -207.3,-70.5 -207.3,-70.5 -157.8,112.7 -390,751.5 -371.4,893 18.6,141.5 594.2,948 733.5,1140.7 137.6,190.5 640,185.7 652.1,185.6 h 0.1 c 0.1,0 0.1,0 0.2,0 399.5,-239.9 435.5,-40.5 435.5,-40.5 0,0 360.5,-68.5 422.4,-175 62,-106.5 333.7,-914 352.9,-942.4 40.2,-59.5 696.9,-297.4 708.7,-366.3 11.9,-68.9 -99,-130 -157.9,-117.5"
         style="fill:#80bdcc;fill-opacity:1;fill-rule:nonzero;stroke:none"
         id="path64" /><path
         d="m 12901.7,11471.4 -498.7,-106.8 c 124.2,247.3 287.4,555.2 251.7,802.5 -13.3,92.3 -43.3,201.5 -57.7,344.4 -1.4,13.7 -3.8,55.2 -3.8,55.2 0,0 353.2,-278 359.4,-578.8 3.3,-156.1 -24,-360.2 -50.9,-516.5"
         style="fill:#5f9aa8;fill-opacity:1;fill-rule:nonzero;stroke:none"
         id="path66" /><path
         d="m 14658.4,11984 c -214.2,33.2 -512.9,91.7 -613.1,183 -27.1,24.9 -90.4,161.4 -156.1,318 0,0 -23,251.7 42.8,242.3 65.8,-9.4 162.6,-455.8 231.7,-484 61.8,-25.3 403.6,-156.5 494.7,-259.3"
         style="fill:#5f9aa8;fill-opacity:1;fill-rule:nonzero;stroke:none"
         id="path68" /><g
         id="g70"
         transform="scale(1.54853)"><path
           d="m 16280.6,1546.5 c -19.5,-65.74 -109.6,-109.53 -121.7,-189.86 -5.9,-39.2 -20.5,-69.62 -39.1,-90.54 h -280.3 c 2.8,15.43 15.1,32.03 51.5,39.97 77.9,17.05 107.2,111.4 102.5,199.03 -2.1,36.68 -1.1,78.59 0.7,114.82 2.4,50.18 6.5,89.57 6.5,89.57 l 165.5,38.94 17.4,-22.34 16.6,-21.51 c 0,0 99.8,-92.41 80.4,-158.08"
           style="fill:#2c3a64;fill-opacity:1;fill-rule:nonzero;stroke:none"
           id="path72" /></g><g
         id="g74"
         transform="scale(1.42396)"><path
           d="m 16285.5,1376.86 h -616.6 c 13.9,16.37 37.6,32.17 77.7,38.7 94.9,15.38 259.2,70.43 295.9,191.79 1.2,3.86 2.2,7.86 3.1,11.93 29.1,129.64 240.8,-39.75 240.8,-39.75 0,0 0.7,-5.19 1.7,-13.97 3.7,-36.52 11.9,-135.54 -2.6,-188.7"
           style="fill:#2c3a64;fill-opacity:1;fill-rule:nonzero;stroke:none"
           id="path76" /></g><g
         id="g78"
         transform="scale(1.45629)"><path
           d="m 15421.7,4705.3 c 0,0 31.4,-392.23 68.4,-863.7 50.2,-640.46 110.5,-1427.18 116.5,-1576.19 10.4,-258.81 51.8,-672.74 51.8,-672.74 0,0 98.2,-98.33 295,-56.92 0,0 175.2,590.95 225.3,1216.17 0.8,10.3 1.5,20.6 2.4,30.9 46.5,636.54 118.9,1976.8 118.9,1976.8 l -878.3,-54.32"
           style="fill:#35488b;fill-opacity:1;fill-rule:nonzero;stroke:none"
           id="path80" /></g><g
         id="g82"
         transform="scale(1.45629)"><path
           d="m 15421.7,4705.3 c 0,0 31.4,-392.23 68.4,-863.7 l 688.6,-1089.68 c 0.8,10.3 1.5,20.6 2.4,30.9 46.5,636.54 118.9,1976.8 118.9,1976.8 l -878.3,-54.32"
           style="fill:#2c3a64;fill-opacity:1;fill-rule:nonzero;stroke:none"
           id="path84" /></g><g
         id="g86"
         transform="scale(1.53906)"><path
           d="m 14728.2,4408.22 c 0,0 536.2,-1344.13 888.7,-1975.75 352.6,-631.69 462.8,-807.97 462.8,-807.97 0,0 202,80.83 220.3,135.93 0,0 -134.8,1219.45 -370.9,1516.71 -133.4,167.96 -290.2,672.04 -297.5,848.31 -7.3,176.28 -47.7,525.15 -47.7,525.15 l -855.7,-242.38"
           style="fill:#35488b;fill-opacity:1;fill-rule:nonzero;stroke:none"
           id="path88" /></g><g
         id="g90"
         transform="scale(1.45726)"><path
           d="m 15845.3,6846.84 c -25.2,148.66 -26,236.78 -26,236.78 l 287.3,231.54 c -10.6,-318.38 193.4,-471.48 193.4,-471.48 0,0 -382.9,-188.46 -604.2,-118.66 0,0 54.5,69.64 149.5,121.82"
           style="fill:#935c2f;fill-opacity:1;fill-rule:nonzero;stroke:none"
           id="path92" /></g><g
         id="g94"
         transform="scale(1.45334)"><path
           d="m 15794.2,7108.02 c 0,0 366.5,-60.88 400.9,167.93 34.4,228.82 104.9,375.07 -127.7,423.62 -232.5,48.54 -291.2,-31.92 -321.2,-105.5 -30.1,-73.59 -46.4,-464.31 48,-486.05"
           style="fill:#a16d3c;fill-opacity:1;fill-rule:nonzero;stroke:none"
           id="path96" /></g><g
         id="g98"
         transform="scale(1.29347)"><path
           d="m 16300,7456.53 -87.7,54.28 c 0,0 -109.3,161.37 -296,61.11 0,0 -73.9,-47.14 -24.3,-86.63 49.7,-39.48 36.3,-17.18 105,-74.37 68.8,-57.19 157.7,-77.62 215.2,-46.09 l 73.6,6.95 14.2,84.75"
           style="fill:#a16d3c;fill-opacity:1;fill-rule:nonzero;stroke:none"
           id="path100" /></g><g
         id="g102"
         transform="scale(1.46317)"><path
           d="m 14317.6,6576.8 c 19.9,62.46 29.4,67.96 29.4,67.96 0,0 626.8,-74.05 685.9,-78.42 59,-4.38 879.7,164.7 879.7,164.7 l 387.4,-470.51 c 0,0 -1142.4,-43.07 -1291.9,-29.06 -247,23.15 -695.1,253.17 -695.1,253.17 0,0 -11.1,43.11 4.6,92.16"
           style="fill:#d3782f;fill-opacity:1;fill-rule:nonzero;stroke:none"
           id="path104" /></g><g
         id="g106"
         transform="scale(1.4754)"><path
           d="m 16298.9,4779.6 c 1.1,-24.08 -48.5,-50.51 -70.1,-60.2 -162.2,-72.72 -313.3,-123.29 -484,-139.69 -202.6,-20.81 -441.9,24.74 -524,23.66 -8.8,0 -16.4,3.25 -22.9,8.74 -5.5,4.4 -9.9,251.78 -5.5,563.67 0,12.04 0,25.22 1.1,37.27 v 4.33 c 0.3,32.48 0.8,65.49 1.5,98.81 2,91.16 5.4,184.74 9.4,277.74 5.9,137.1 14.1,271.84 25.4,391.21 11.8,124.67 26.7,232.65 45.7,309.23 43.8,176.21 144.5,292.27 236.4,377.64 l 75.5,66.7 c 75.6,-15.29 155.5,-10.89 235.4,28.47 86.5,42.69 180.6,88.68 195.9,77.72 116.7,-87.21 195.2,-285.21 235.5,-536.84 21.7,-135.43 32.2,-286.35 31.6,-443.96 -0.2,-60.44 -2.1,-121.79 -5.5,-183.72 -19.5,-332.34 0.5,-620.48 11.9,-787.95 3.3,-48.16 6,-86.45 6.7,-112.83"
           style="fill:#e69d43;fill-opacity:1;fill-rule:nonzero;stroke:none"
           id="path108" /></g><g
         id="g110"
         transform="scale(1.31582)"><path
           d="m 16123.7,8804.23 -2559.9,406.56 c -109,17.29 -211.2,-56.94 -228.5,-165.79 L 13222,8331.48 c -5.3,-33.05 3.2,-125.93 3.2,-125.93 l 92.2,-13.73 c 5.3,-1.14 10.6,-1.95 16,-2.39 v 0 0 c 16.7,-1.34 34.1,0.74 51.5,7.03 84.9,30.72 178.9,40.06 274.5,22.52 269.5,-49.41 458.1,-300.85 429.3,-573.31 -31.9,-303.06 -310.3,-513.75 -607.4,-466.57 -111.8,17.75 -209.8,69.39 -285.1,142.78 -14.6,14.23 -32.2,21.74 -49.9,23.57 v 0 l -96.6,14.49 -120.2,-870.38 c -17.1,-107.35 56.1,-208.18 163.5,-225.24 l 731.3,-116.14 c 67.7,-10.74 100.4,-88.92 60.5,-144.65 -46.1,-64.44 -78.3,-140.29 -91.6,-223.86 -52.2,-328.64 211.1,-634.5 566,-609.04 178.6,12.77 380.4,162.61 445.1,329.62 47.9,123.34 47.9,248.44 11.9,359.19 -20.6,63.31 33.4,125.91 99.2,115.46 l 735.8,-116.86 c 107.3,-17.05 208.2,56.12 225.2,163.43 l 407,2562.79 c 16.6,104.83 -54.8,203.31 -159.7,219.97"
           style="fill:#4a75cb;fill-opacity:1;fill-rule:nonzero;stroke:none"
           id="path112" /></g><g
         id="g114"
         transform="scale(1.45069)"><path
           d="m 16300,6422.36 c 0,0 -178,-830.6 -846.2,-1015.63 2.1,92.7 5.5,187.88 9.6,282.47 6,139.43 14.2,276.47 25.7,397.87 12,6.16 23.1,10.95 33.4,14.32 226.7,74.77 777.5,320.97 777.5,320.97"
           style="fill:#d3782f;fill-opacity:1;fill-rule:nonzero;stroke:none"
           id="path116" /></g><g
         id="g118"
         transform="scale(1.30818)"><path
           d="m 14795.5,5546.74 c 48.1,124.06 48.2,249.88 12,361.28 -20.7,63.68 33.6,126.63 99.8,116.14 l 740.1,-117.55 c 107.9,-17.14 209.3,56.46 226.4,164.38 l 409.5,2577.76 c 16.7,105.44 -55.2,204.5 -160.6,221.24 l -2575,408.95 c -109.5,17.38 -212.3,-57.28 -229.7,-166.76 l -114,-717.69 c -14.7,-92.84 75.5,-167.8 163.9,-135.8 85.3,30.9 180,40.29 276.1,22.65 271.1,-49.69 460.7,-302.61 431.8,-576.66 -32.1,-304.83 -312.2,-516.74 -611,-469.29 -112.4,17.86 -210.9,69.78 -286.8,143.61 -49.2,47.97 -132,20.67 -142.8,-47.23 l -125.4,-789.95 c -17.1,-107.97 56.5,-209.4 164.4,-226.55 l 735.6,-116.82 c 68.1,-10.81 101,-89.44 60.9,-145.5 -46.4,-64.82 -78.8,-141.1 -92.1,-225.17 -52.6,-330.55 212.3,-638.19 569.2,-612.59 179.7,12.84 382.7,163.57 447.7,331.55"
           style="fill:#699dee;fill-opacity:1;fill-rule:nonzero;stroke:none"
           id="path120" /></g><g
         id="g122"
         transform="scale(1.29371)"><path
           d="m 16300,6854.67 -107.1,17.7 c 0,0 -122,176.61 -334.7,77.53 0,0 -84.4,-47.18 -28.6,-91.35 55.8,-44.17 40.9,-19.82 118.2,-83.67 77.3,-63.86 177.9,-89.35 243.2,-58.14 l 83.5,4.34 25.5,133.59"
           style="fill:#a16d3c;fill-opacity:1;fill-rule:nonzero;stroke:none"
           id="path124" /></g><g
         id="g126"
         transform="scale(1.46845)"><path
           d="m 14288.3,5991.07 c 3,69.4 40,76.81 40,76.81 0,0 714.5,47.26 776.1,59.2 61.6,11.96 630.6,483.42 630.6,483.42 0,0 220.1,197.78 374.3,131.04 134,-57.99 175.9,-172.41 182.7,-277.63 8,-125.39 -62.8,-242.61 -176.6,-295.78 -255.5,-119.36 -766.6,-353.66 -883,-373.87 -259,-44.99 -924.9,99.21 -924.9,99.21 0,0 -21.6,43.09 -19.2,97.6"
           style="fill:#e69d43;fill-opacity:1;fill-rule:nonzero;stroke:none"
           id="path128" /></g><g
         id="g130"
         transform="scale(1.46133)"><path
           d="m 15660,7552.53 c 0,0 -147.9,109.7 -51.4,280.15 0,0 116.3,-38.59 281.6,0 165.4,38.59 313.3,-16.08 332.6,-73.96 0,0 64.3,-25.74 70.8,-122.21 6.4,-96.47 -187.1,-400.36 -187.1,-400.36 0,0 -41.3,51.44 -30.1,86.81 11.3,35.38 46.7,114.17 3.3,114.17 -43.4,0 -57.9,-64.33 -75.6,-38.59 -17.6,25.73 14.5,133.46 -36.9,151.14 -51.5,17.69 -249.3,-29.68 -307.2,2.85"
           style="fill:#2c3a64;fill-opacity:1;fill-rule:nonzero;stroke:none"
           id="path132" /></g><path
         d="m 15536.7,2080.6 -952.2,4323.3 h 262.1 c 62.2,0 113,50.8 113,113 v 146 c 0,62.1 -50.8,112.9 -113,112.9 h -3324.9 c -62.1,0 -112.9,-50.8 -112.9,-112.9 v -146 c 0,-62.2 50.8,-113 112.9,-113 h 337.5 L 10907,2080.6 c -12.8,-58.1 24.1,-116.2 82,-129 58,-12.9 115.9,24.2 128.7,82.3 l 962.5,4370 h 2283.3 l 962.5,-4370 c 12.8,-58.1 70.7,-95.2 128.6,-82.3 v 0 c 58,12.8 94.9,70.9 82.1,129"
         style="fill:#c3e0f4;fill-opacity:1;fill-rule:nonzero;stroke:none"
         id="path134" /><g
         id="g136"
         transform="scale(1.36218)"><path
           d="m 16041.3,3471.06 c -258.8,248.35 -1190.2,-1318.85 -1190.2,-1318.85 0,0 1448.9,1070.42 1190.2,1318.85"
           style="fill:#acd29a;fill-opacity:1;fill-rule:nonzero;stroke:none"
           id="path138" /></g><g
         id="g140"
         transform="scale(1.35958)"><path
           d="m 16040.8,2751.8 c -229.5,91.79 -962.9,-681.38 -1128.1,-859.9 -126.3,16.77 -265,27.66 -416.9,30.38 -1161.3,20.74 -1688.1,-505.23 -1688.1,-505.23 l 3239.6,-11.03 c 0,0 -287,364.38 -1101.1,481.25 199,93.93 787.3,367.61 1001.3,420.2 259.2,63.77 352.5,340.7 93.3,444.33"
           style="fill:#acd29a;fill-opacity:1;fill-rule:nonzero;stroke:none"
           id="path142" /></g><g
         id="g144"
         transform="scale(1.27785)"><path
           d="m 16094.6,4604.52 h -744 c -96.3,0 -157.5,-103.22 -111,-187.42 44.9,-81.39 -113.2,-786.4 -446.4,-804.79 -313.4,-17.29 -572.6,232.73 -572.6,542.47 0,116.53 36.7,224.52 99.1,312.95 40.6,57.52 -0.3,136.79 -70.6,136.79 h -818.9 c -111.9,0 -202.6,-90.7 -202.6,-202.6 0,0 -74.3,-878.9 -137.4,-847.36 -65,32.47 -137.5,52.27 -214.1,56.18 v 0.08 h -0.8 c -9.1,0.47 -18.3,0.71 -27.6,0.71 -9.2,0 -144,2.34 -144,2.34 l -20.5,-1086.11 117.1,-1.26 c 111.3,3.37 207.9,13.78 293.9,57.52 61,31.15 133.4,-13.61 133.4,-82.17 v -767.22 c 0,-111.83 90.7,-202.53 202.5,-202.53 h 2672 c 109.3,0 197.9,88.59 197.9,197.91 V 4399.1 c 0,113.47 -92,205.42 -205.4,205.42"
           style="fill:#d86713;fill-opacity:1;fill-rule:nonzero;stroke:none"
           id="path146" /></g><g
         id="g148"
         transform="scale(1.26656)"><path
           d="m 12695,2563.09 c 134.4,-28.98 262.7,-8.61 370.5,46.34 61.6,31.43 134.7,-13.81 134.7,-82.98 v -773.98 c 0,-112.91 91.5,-204.42 204.3,-204.42 h 2695.8 c 110.3,0 199.7,89.38 199.7,199.68 v 2692.89 c 0,114.48 -92.8,207.33 -207.3,207.33 h -750.6 c -97.1,0 -158.9,-104.14 -111.9,-189.17 45.3,-82.12 70.2,-177.1 67.8,-278 -6.8,-284.55 -234,-518.97 -518.3,-533.97 -316.1,-16.58 -577.7,234.81 -577.7,547.31 0,117.56 37.1,226.52 100.1,315.74 40.9,58.03 -0.4,138.09 -71.3,138.09 h -826.2 c -112.9,0 -204.4,-91.59 -204.4,-204.49 v -769.25 c 0,-71.22 -74.9,-117.48 -138.6,-85.67 -73.6,36.8 -156.7,57.56 -244.7,57.56 -345.6,0 -616.5,-320.08 -532.6,-680.03 42.3,-181.2 228.8,-363.82 410.7,-402.98"
           style="fill:#f1a34f;fill-opacity:1;fill-rule:nonzero;stroke:none"
           id="path150" /></g><path
         d="m 6192.93,1941.6 613.66,-4.5 c 0,0 -21.35,148.5 -434.44,186.8 v 0 c -160.15,444.8 -630.63,1641.5 -1039.18,1585 -403.38,-55.9 551.96,-1153.8 940.61,-1580.7 -54.99,-0.1 -106.25,-4.5 -153.56,-12.1 -93.62,186.4 -279.26,449.9 -577.19,437.9 -317.07,-12.8 114.9,-302.4 412.3,-480.2 -150.64,-54 -231.99,-128.8 -231.99,-128.8 l 462.82,-3.4 c 5.45,-2.9 8.4,-4.5 8.4,-4.5 0,0 -0.48,1.6 -1.43,4.5"
         style="fill:#acd29a;fill-opacity:1;fill-rule:nonzero;stroke:none"
         id="path152" /><path
         d="m 8385.47,6900.4 90.79,-73.7 c 0,0 248.39,89.1 304.44,-206.1 0,0 14.93,-125.8 -64.75,-126 -79.68,-0.3 -46.81,13.7 -159.64,10.4 -112.83,-3.3 -206.35,56.2 -222.88,147.8 l -53.98,77.6 106.02,170"
         style="fill:#ea8e50;fill-opacity:1;fill-rule:nonzero;stroke:none"
         id="path154" /><path
         d="m 8375.2,6742.2 c 72.43,75.6 66.6,131.5 66.6,131.5 0,0 -838.83,686.79 -923.9,742.75 -57.97,38.12 -675.73,585.79 -964.5,919.66 -143.23,165.62 -320.66,101.35 -523.65,43.11 l -167.17,-47.96 c -201.86,-57.91 -254.36,-340.23 -88.73,-477.42 466.45,-386.36 1242.42,-820.94 1387.6,-912.26 360.43,-226.78 1065.94,-496.18 1065.94,-496.18 0,0 85.6,31.8 147.81,96.8"
         style="fill:#1e3d70;fill-opacity:1;fill-rule:nonzero;stroke:none"
         id="path156" /><path
         d="m 9356.89,2529.9 c 0,0 203.57,-152.5 515.49,-72 0,0 251.52,57.4 306.62,-68.1 0,0 -385.67,-195.9 -483.28,-249.5 -73.55,-40.4 -150.32,-104.1 -204.59,-153.4 -42.95,-39 -109.85,-33.7 -146.46,11.3 -16.97,20.8 -36.39,45.7 -57.67,74.5 -59.46,80.6 -198.04,340.9 -198.04,340.9 l 267.93,116.3"
         style="fill:#233862;fill-opacity:1;fill-rule:nonzero;stroke:none"
         id="path158" /><path
         d="m 9451.95,2600.3 c 0,0 -123.96,-285.8 -410.09,-233.3 0,0 -583.88,482.2 -984.38,983.1 -130.07,162.7 -240.82,327.4 -305.9,478.1 C 7486,4443.1 6769.17,5360.2 6313.41,5825 l 1140.28,412.5 c 0,0 365.24,-734.7 851.19,-1637.2 350.23,-650.2 763.03,-1387.6 1147.07,-2000"
         style="fill:#2b478b;fill-opacity:1;fill-rule:nonzero;stroke:none"
         id="path160" /><path
         d="m 8304.88,4600.3 -247.4,-1250.2 c -130.07,162.7 -240.82,327.4 -305.9,478.1 C 7486,4443.1 6769.17,5360.2 6313.41,5825 l 1140.28,412.5 c 0,0 365.24,-734.7 851.19,-1637.2"
         style="fill:#233862;fill-opacity:1;fill-rule:nonzero;stroke:none"
         id="path162" /><path
         d="m 7369.84,2367.7 c 0,0 -12.43,-228 264.06,-258.5 0,0 157.99,-0.8 158.44,-145.9 l -803.57,-2.6 c 0,0 -23.33,58.6 -28.99,184 -4.35,96.3 93.35,348.1 93.35,348.1 l 316.71,-125.1"
         style="fill:#233862;fill-opacity:1;fill-rule:nonzero;stroke:none"
         id="path164" /><path
         d="m 7079.68,6237.5 c 0,0 507.98,-558.2 830.44,-1563.8 175.44,-547.1 -321.57,-1922.8 -418.46,-2400.7 0,0 -333.41,-28.3 -561.38,59.8 0,0 -17.32,987.2 116.01,1748.1 74.61,425.8 -668.85,910.7 -993.71,1680.1 -221,523.4 47.86,514.5 378.27,527.1 l 648.83,-50.6"
         style="fill:#2b478b;fill-opacity:1;fill-rule:nonzero;stroke:none"
         id="path166" /><path
         d="m 6493.27,8727.78 c -282.63,-159.59 -861.22,-12.41 -861.22,-12.41 0,0 234.97,268.63 128.2,701.26 l 221.91,-112.69 238.37,-121.06 c 0,0 15.4,-76.41 26.12,-213.64 2.73,-35.34 5.17,-74.82 6.86,-117.95 145.11,-44 239.76,-123.51 239.76,-123.51"
         style="fill:#ffb07b;fill-opacity:1;fill-rule:nonzero;stroke:none"
         id="path168" /><path
         d="m 7529.62,6266.3 c 0,-49.6 -57.22,-73.4 -69.38,-75.8 -113.98,-20.9 -432.27,-144.7 -719,-173.1 -241.43,-25.3 -465.59,-1.2 -711.85,48.2 -32.6,6.6 -109.16,27.2 -114.6,58.4 -6.79,34.2 -949.87,1922.58 -216.73,2733.76 17.21,19.03 161.93,-15.24 294.27,-46.65 122.22,-28.99 234.33,-12.83 334.45,27.33 l 124.11,-65.31 c 152.41,-84.93 440.81,-386.67 474.55,-623.43 17.14,-120.41 86,-209.57 105.92,-315.49 7.4,-39.19 14.96,-77.46 22.65,-114.75 15.02,-73.15 30.51,-142.76 46.43,-208.97 43.11,-179.07 88.63,-333.23 133.33,-466.41 47.56,-141.38 94.21,-258.98 135.88,-357.38 54.05,-127.6 99.73,-223 128.27,-296 20.16,-51.4 31.7,-91.7 31.7,-124.4"
         style="fill:#2a4e96;fill-opacity:1;fill-rule:nonzero;stroke:none"
         id="path170" /><path
         d="M 7497.92,6390.7 C 6166.65,7017.96 5705.6,8222.33 5705.6,8222.33 c 0,0 1081.62,-398.99 1348.41,-502.87 15.02,-73.15 30.51,-142.76 46.43,-208.97 43.11,-179.07 88.63,-333.23 133.33,-466.41 47.56,-141.38 94.21,-258.98 135.88,-357.38 54.05,-127.6 99.73,-223 128.27,-296"
         style="fill:#1e3d70;fill-opacity:1;fill-rule:nonzero;stroke:none"
         id="path172" /><path
         d="m 11258.3,7724.67 -285.2,904.22 c -27.7,87.81 -118.5,129.38 -197.9,107.05 v 0 l -0.2,-0.06 c -4.2,-1.2 -8.4,-2.64 -12.5,-4.19 l -100,-33.4 c 0,0 -156.6,-161.21 -268.9,-193.72 -345.4,-99.93 -673.23,84.15 -799.24,420.88 -140.16,374.54 22.45,785.82 398.93,904.55 128.81,40.62 382.31,-35.08 382.31,-35.08 l 101.8,33.82 c 55.3,16.81 93.2,76.45 73.5,139.05 L 10237,10963 c -42.9,136.1 -187.9,211.6 -323.97,168.7 l -926.75,-292.3 c -85.77,-27 -169.96,45.6 -155.81,134.4 16.36,102.7 9.74,210.6 -23.65,316.5 -131.34,416.5 -619.83,621.3 -1021.57,383.4 -202.26,-119.7 -351.33,-413.9 -329.46,-647.9 16.16,-172.9 89.43,-319.8 196.58,-428.7 61.26,-62.3 34.56,-167.5 -48.76,-193.7 l -932.51,-294.1 c -135.97,-42.9 -211.43,-187.9 -168.55,-323.87 L 7526.76,6537.7 c 41.89,-132.8 183.55,-206.5 316.4,-164.6 l 3244.14,1023.05 c 137.9,43.5 214.5,190.58 171,328.52"
         style="fill:#4a75cb;fill-opacity:1;fill-rule:nonzero;stroke:none"
         id="path174" /><path
         d="m 7357.1,10992.9 c 16.16,-172.9 89.43,-319.8 196.59,-428.7 61.25,-62.3 34.55,-167.4 -48.77,-193.7 l -932.5,-294.1 c -135.97,-42.9 -211.44,-187.89 -168.56,-323.87 L 7428.07,6504.8 c 41.89,-132.8 183.55,-206.5 316.4,-164.6 l 3244.13,1023.06 c 138,43.5 214.5,190.58 171,328.52 l -285.2,904.21 c -36.9,116.98 -185.8,151.9 -270.4,63.04 -81.6,-85.82 -186.6,-151.91 -309.1,-187.37 -345.4,-99.92 -714.13,84.81 -840.14,421.54 -140.16,374.54 63.36,785.18 439.85,903.91 141.59,44.66 286.89,41.44 418.39,-0.57 85.4,-27.3 166.2,52.82 139.2,138.36 l -313.9,995.3 c -42.9,136 -187.93,211.5 -323.95,168.6 l -926.76,-292.3 c -85.76,-27 -169.96,45.6 -155.81,134.4 16.35,102.7 9.74,210.6 -23.66,316.5 -131.34,416.5 -619.8,621.3 -1021.55,383.5 -202.27,-119.8 -351.35,-414 -329.47,-648"
         style="fill:#699dee;fill-opacity:1;fill-rule:nonzero;stroke:none"
         id="path176" /><path
         d="m 8276.81,6754.2 115.04,-42.2 c 0,0 230.38,162.9 373.79,-102 0,0 51.89,-115.7 -30.23,-140.8 -82.13,-25.2 -52.27,-1.5 -167.7,-40 -115.42,-38.4 -229.14,-10.7 -272.74,71.7 l -78.18,57.4 60.02,195.9"
         style="fill:#ffb07b;fill-opacity:1;fill-rule:nonzero;stroke:none"
         id="path178" /><path
         d="m 8371.48,6591.5 c 42.54,111 61.97,161.3 61.97,161.3 0,0 -869.27,708.52 -957.83,769.29 -60.37,41.41 -661.23,490.55 -954.17,840.58 -145.32,173.62 -374.44,252.99 -596.04,206.53 l -182.47,-38.27 c -220.34,-46.21 -291.93,-325.1 -121.01,-471.62 481.39,-412.69 1293.3,-891.34 1444.68,-990.89 C 7442.42,6821.3 8273.65,6475 8273.65,6475 c 0,0 64.44,29.4 97.83,116.5"
         style="fill:#2a4e96;fill-opacity:1;fill-rule:nonzero;stroke:none"
         id="path180" /><path
         d="m 6246.65,8969.24 c -277.92,-15.61 -458.66,213.87 -458.66,213.87 0,0 125.65,69.6 194.17,120.83 l 238.37,-121.06 c 0,0 15.4,-76.41 26.12,-213.64"
         style="fill:#ea8e50;fill-opacity:1;fill-rule:nonzero;stroke:none"
         id="path182" /><path
         d="m 6365.06,9254.59 c 0,0 -421.11,-302.21 -605.27,-37.06 -184.16,265.15 -362.54,404.71 -101.46,608.87 261.09,204.2 384.16,139.65 467.15,66.11 83,-73.55 344.37,-552.48 239.58,-637.92"
         style="fill:#ffb07b;fill-opacity:1;fill-rule:nonzero;stroke:none"
         id="path184" /><path
         d="m 6169.97,10132 c -15.1,101.9 -49.07,173.6 -49.07,173.6 0,0 -26.43,-109.5 -226.49,-94.4 -200.05,15.1 -517.13,-19.6 -622.83,-247.61 -6.73,-14.51 -12.72,-29.45 -18.04,-44.72 -19.14,50.54 -23.75,126.33 -23.75,126.33 -38.01,-98.19 0,-220.96 0,-220.96 h 0.01 c -0.56,-3.57 -1.04,-7.16 -1.56,-10.75 -44.14,-37.33 -81.23,-153.36 -81.23,-153.36 13.33,32.34 45.82,53.47 74.8,66.48 -0.9,-177.39 71.03,-350.81 197.3,-402.44 184.65,-75.49 183.18,-17.9 368.88,-141.06 0,0 49.8,61.79 15.84,103.32 -33.99,41.52 -162.32,101.91 -90.6,162.31 71.72,60.39 98.14,-7.55 124.56,33.97 26.43,41.53 -105.68,162.32 64.17,275.55 169.87,113.24 283.11,271.84 268.01,373.74"
         style="fill:#233862;fill-opacity:1;fill-rule:nonzero;stroke:none"
         id="path186" /><g
         id="g188"
         transform="scale(1.0436)"><path
           d="m 16300,1877.26 c 0,0 -204.1,301.65 -523.4,277.31 -97.1,-7.38 -254.8,-31.04 -438,-56.25 -138.2,482.18 -519,1628.22 -1032.7,1692.81 -524.5,65.83 502,-1208.71 921.8,-1707.76 -76.5,-10.06 -156.1,-19.93 -236.3,-28.65 -222.3,237.36 -609.6,588.93 -933,561.91 -324.1,-27.12 282.8,-362.31 721,-581.55 -268.9,-20.12 -523.8,-17.92 -679.5,42.26 -381.5,147.47 -732.1,-200.08 -732.1,-200.08 H 16300"
           style="fill:#82b378;fill-opacity:1;fill-rule:nonzero;stroke:none"
           id="path190" /></g><g
         id="g192"
         transform="scale(1.70245)"><path
           d="M 16282.8,1111.57 H 1191.94 c -9.42,0 -17.14,7.7 -17.14,17.15 v 5.82 c 0,9.46 7.72,17.15 17.14,17.15 H 16282.8 c 9.4,0 17.2,-7.69 17.2,-17.15 v -5.82 c 0,-9.45 -7.8,-17.15 -17.2,-17.15"
           style="fill:#2e3552;fill-opacity:1;fill-rule:nonzero;stroke:none"
           id="path194" /></g></g></g></svg>